<svg width="100" height="100" viewBox="0 0 100 100" fill="none" xmlns="http://www.w3.org/2000/svg">
<g clip-path="url(#clip0_29_38)">
<path fill-rule="evenodd" clip-rule="evenodd" d="M50 1.23328C22.3875 1.23328 0 23.6166 0 51.2333C0 73.3249 14.325 92.0666 34.1917 98.6791C36.6917 99.1416 37.6083 97.5958 37.6083 96.2749C37.6083 95.0833 37.5625 91.1458 37.5417 86.9666C23.6333 89.9916 20.6958 81.0666 20.6958 81.0666C18.4208 75.2874 15.1458 73.7499 15.1458 73.7499C10.6083 70.6458 15.4875 70.7124 15.4875 70.7124C20.5083 71.0666 23.15 75.8666 23.15 75.8666C27.6083 83.5083 34.8458 81.2999 37.7 80.0208C38.15 76.7874 39.4458 74.5833 40.875 73.3333C29.7708 72.0708 18.0958 67.7833 18.0958 48.6249C18.0958 43.1666 20.05 38.7041 23.25 35.2041C22.7292 33.9416 21.0167 28.8583 23.7333 21.9708C23.7333 21.9708 27.9333 20.6291 37.4875 27.0958C41.475 25.9874 45.75 25.4333 50 25.4124C54.25 25.4333 58.5292 25.9874 62.525 27.0958C72.0667 20.6249 76.2625 21.9708 76.2625 21.9708C78.9833 28.8583 77.2708 33.9416 76.7542 35.2041C79.9583 38.7041 81.9 43.1666 81.9 48.6249C81.9 67.8291 70.2042 72.0583 59.0708 73.2958C60.8625 74.8458 62.4625 77.8916 62.4625 82.5541C62.4625 89.2458 62.4042 94.6291 62.4042 96.2749C62.4042 97.6041 63.3042 99.1666 65.8375 98.6749C85.6958 92.0541 100.004 73.3208 100.004 51.2374C100 23.6208 77.6125 1.23328 50 1.23328Z" fill="#040404"/>
<path d="M18.9376 73.025C18.8293 73.275 18.4376 73.35 18.0793 73.1792C17.7168 73.0167 17.5126 72.675 17.6293 72.4292C17.7376 72.175 18.1293 72.1042 18.4918 72.275C18.8543 72.4334 19.0626 72.775 18.9376 73.025Z" fill="#040404"/>
<path d="M20.9626 75.2831C20.7251 75.5039 20.2585 75.3998 19.9418 75.0539C19.6126 74.7039 19.5543 74.2373 19.796 74.0164C20.0418 73.7956 20.4918 73.8998 20.821 74.2498C21.1501 74.5956 21.2126 75.0581 20.9626 75.2831Z" fill="#040404"/>
<path d="M22.9335 78.1626C22.6252 78.3751 22.1252 78.1751 21.8168 77.7335C21.5085 77.2876 21.5085 76.7543 21.8252 76.5418C22.1335 76.3293 22.6293 76.521 22.9418 76.9626C23.246 77.4126 23.246 77.946 22.9335 78.1626Z" fill="#040404"/>
<path d="M25.6335 80.9458C25.3585 81.25 24.7752 81.1667 24.3502 80.7542C23.9127 80.35 23.7918 79.7792 24.0668 79.475C24.346 79.1708 24.9335 79.2583 25.3627 79.6667C25.796 80.0708 25.9252 80.6458 25.6335 80.9458Z" fill="#040404"/>
<path d="M29.3624 82.5583C29.2416 82.9499 28.6791 83.1291 28.1124 82.9624C27.5458 82.7916 27.1749 82.3333 27.2916 81.9374C27.4083 81.5416 27.9749 81.3583 28.5458 81.5374C29.1083 81.7041 29.4791 82.1624 29.3624 82.5583Z" fill="#040404"/>
<path d="M33.4541 82.8584C33.4666 83.2709 32.9875 83.6126 32.3916 83.6209C31.7958 83.6334 31.3083 83.3001 31.3041 82.8959C31.3041 82.4792 31.775 82.1417 32.3708 82.1292C32.9666 82.1167 33.4541 82.4501 33.4541 82.8584Z" fill="#040404"/>
<path d="M37.2623 82.2125C37.3331 82.6125 36.9206 83.0291 36.329 83.1375C35.7498 83.2458 35.2123 82.9958 35.1373 82.5958C35.0665 82.1833 35.4873 81.7708 36.0665 81.6625C36.654 81.5583 37.1873 81.8 37.2623 82.2125Z" fill="#040404"/>
</g>
<defs>
<clipPath id="clip0_29_38">
<rect width="100" height="100" fill="white"/>
</clipPath>
</defs>
</svg>
