<svg width="100" height="100" viewBox="0 0 100 100" fill="none" xmlns="http://www.w3.org/2000/svg">
<g clip-path="url(#clip0_29_30)">
<path d="M95.8415 89.9333H96.7873L94.9748 87.1917C96.0831 87.1917 96.6706 86.4875 96.679 85.625C96.679 85.5917 96.679 85.5542 96.6748 85.5208C96.6748 84.3458 95.9665 83.7833 94.5123 83.7833H92.1623V89.9333H93.0456V87.2542H94.1331L95.8415 89.9333ZM94.0706 86.5583H93.0456V84.4792H94.3456C95.0165 84.4792 95.7831 84.5875 95.7831 85.4667C95.7831 86.475 95.0123 86.5583 94.0706 86.5583Z" fill="#040404"/>
<path d="M72.0458 79.471H59.5167V59.8501C59.5167 55.171 59.4333 49.1501 53 49.1501C46.475 49.1501 45.475 54.246 45.475 59.5126V79.471H32.95V39.121H44.9792V44.6335H45.1458C47.6 40.4418 52.1583 37.9376 57.0125 38.1168C69.7125 38.1168 72.05 46.471 72.05 57.3335L72.0458 79.471ZM18.8125 33.6043C14.7958 33.6043 11.5417 30.3501 11.5417 26.3335C11.5417 22.3168 14.7958 19.0626 18.8125 19.0626C22.8292 19.0626 26.0833 22.3168 26.0833 26.3335C26.0833 30.3501 22.8292 33.6043 18.8125 33.6043ZM25.075 79.471H12.5333V39.121H25.075V79.471ZM78.2917 7.4293H6.2375C2.83333 7.3918 0.0416667 10.121 0 13.5251V85.8751C0.0416667 89.2835 2.83333 92.0126 6.2375 91.9751H78.2917C81.7042 92.0168 84.5083 89.2876 84.5542 85.8751V13.521C84.5042 10.1085 81.7 7.3793 78.2917 7.42513" fill="#040404"/>
<path d="M94.1791 81.0459C90.9958 81.0751 88.4374 83.6834 88.4708 86.8667C88.4999 90.0501 91.1083 92.6084 94.2916 92.5751C97.4749 92.5459 100.033 89.9376 99.9999 86.7542C99.9708 83.6126 97.4291 81.0751 94.2916 81.0459H94.1791ZM94.3124 91.9126C91.5208 91.9584 89.0875 89.7376 89.0416 86.9459C88.9958 84.1542 91.2208 81.8542 94.0124 81.8084C96.8041 81.7626 99.1041 83.9876 99.1499 86.7792C99.1499 86.8084 99.1499 86.8334 99.1499 86.8626C99.2083 89.5917 97.0416 91.8542 94.3124 91.9126H94.1833Z" fill="#040404"/>
</g>
<defs>
<clipPath id="clip0_29_30">
<rect width="100" height="100" fill="white"/>
</clipPath>
</defs>
</svg>
